<svg xmlns="http://www.w3.org/2000/svg" xmlns:xlink="http://www.w3.org/1999/xlink" width="160" height="44" viewBox="0 0 160 44"><defs><path id="udbac" d="M119 51.35c.08 4.3-2.69 8.65-8.96 8.65H103V43h7.04c6.14 0 8.88 4.15 8.96 8.35zm-12.65 5.57h3.7c4.07 0 5.68-2.82 5.6-5.59-.07-2.65-1.71-5.3-5.6-5.3h-3.7z"/><path id="udbad" d="M137 43v9.55c0 4.93-3.31 7.45-7.9 7.45-4.37 0-8.1-2.43-8.1-7.45V43h3.41v9.55c0 3 1.88 4.6 4.72 4.6s4.46-1.75 4.46-4.6V43z"/><path id="udbae" d="M154 57.44a9.36 9.36 0 0 1-6.68 2.56c-6.53 0-9.3-4.41-9.32-8.9-.03-4.51 2.96-9.1 9.32-9.1 2.38 0 4.65.89 6.45 2.64l-2.2 2.1a6.1 6.1 0 0 0-4.25-1.63c-4.25 0-6.08 3.1-6.05 5.99.02 2.86 1.7 5.84 6.05 5.84 1.53 0 3.26-.61 4.42-1.75z"/><path id="udbaf" d="M169.74 56.8h-9.48L158.7 60H155l8.13-17h3.74L175 60h-3.73zM165 46.56l-3.37 7.24h6.74z"/><path id="udbag" d="M177.4 45.91H172V43h14v2.91h-5.4V60h-3.2z"/><path id="udbah" d="M203 43v9.55c0 4.93-3.31 7.45-7.9 7.45-4.37 0-8.1-2.43-8.1-7.45V43h3.41v9.55c0 3 1.88 4.6 4.72 4.6s4.46-1.75 4.46-4.6V43z"/><path id="udbaa" d="M204.02 43.01h15.87v16.85h-15.87z"/><path id="udbaj" d="M219.89 59.86h-4.02l-5.22-5.62h-3.25v5.62h-3.38V43.01l8.52.02c4.22.03 6.45 2.67 6.45 5.58 0 2.31-1.13 4.64-4.53 5.3l5.43 5.74zM207.39 46v5.39h5.15c2.15 0 3.07-1.35 3.07-2.7 0-1.34-.94-2.69-3.07-2.69z"/><path id="udbab" d="M60 27h31v44H60z"/><path id="udbal" d="M82.18 27v10.92l-.25.06-6.3-3.83-4.1 2.4-7.56 4.49-3.9 2.34L60 61.7l3.65 2.2L75.37 71l3.47-2.01 8.06-4.81 4.04-2.47.06-29.45L82.18 27zM75.5 60.42l-6.62-3.9v-7.88l6.5-3.9L82 48.51l.19 7.87z"/><linearGradient id="udbam" x1="60" x2="91" y1="27" y2="71" gradientUnits="userSpaceOnUse"><stop offset="0" stop-color="#7956ec"/><stop offset="1" stop-color="#2fb9f8"/></linearGradient><clipPath id="udbai"><use xlink:href="#udbaa"/></clipPath><clipPath id="udbak"><use xlink:href="#udbab"/></clipPath></defs><g><g transform="translate(-60 -27)"><use fill="#fff" xlink:href="#udbac"/></g><g transform="translate(-60 -27)"><use fill="#fff" xlink:href="#udbad"/></g><g transform="translate(-60 -27)"><use fill="#fff" xlink:href="#udbae"/></g><g transform="translate(-60 -27)"><use fill="#fff" xlink:href="#udbaf"/></g><g transform="translate(-60 -27)"><use fill="#fff" xlink:href="#udbag"/></g><g transform="translate(-60 -27)"><use fill="#fff" xlink:href="#udbah"/></g><g transform="translate(-60 -27)"/><g clip-path="url(#udbai)" transform="translate(-60 -27)"><use fill="#fff" xlink:href="#udbaj"/></g><g transform="translate(-60 -27)"/><g clip-path="url(#udbak)" transform="translate(-60 -27)"><use fill="url(#udbam)" xlink:href="#udbal"/></g></g></svg>